#tb 0: 1/10
#media_type 0: video
#codec_id 0: rawvideo
#dimensions 0: 320x240
#sar 0: 1/1
0,          0,          0,        1,   115200, 0x3744b3ed
0,          1,          1,        1,   115200, 0xf54dba9a
0,          2,          2,        1,   115200, 0xd0b30f49
0,          3,          3,        1,   115200, 0x61720dac
0,          4,          4,        1,   115200, 0xb93a0baa
0,          5,          5,        1,   115200, 0x6e318ba0
0,          6,          6,        1,   115200, 0xbce5157a
0,          7,          7,        1,   115200, 0xe16418a3
0,          8,          8,        1,   115200, 0xdd91079c
0,          9,          9,        1,   115200, 0xdf69f73c
